<?xml version="1.0" encoding="utf-8"?>
<!-- Generator: Adobe Illustrator 21.0.0, SVG Export Plug-In . SVG Version: 6.00 Build 0)  -->
<svg version="1.1" id="Слой_1" xmlns="http://www.w3.org/2000/svg" xmlns:xlink="http://www.w3.org/1999/xlink" x="0px" y="0px"
	 viewBox="0 0 512 512" style="enable-background:new 0 0 512 512;" xml:space="preserve">
<style type="text/css">
	.st0{fill:#2196F3;}
</style>
<path class="st0" d="M59.1,113.6l171.8-99.2c15.5-8.9,34.5-8.9,50,0l171.8,99.1c15.5,8.9,25,25.4,25,43.3l0.1,198.4
	c0,17.9-9.5,34.4-25,43.3l-171.8,99.2c-15.5,8.9-34.5,8.9-50,0L59.2,398.6c-15.5-8.9-25-25.4-25-43.3l-0.1-198.4
	C34.2,139,43.7,122.5,59.1,113.6z M160.9,410.7h5.1l-10.7-28.4h-4.4l-10.7,28.4h5.1l2.3-6.6h11L160.9,410.7z M153,388.3l4.1,11.8
	h-8.2L153,388.3z M180,400.1c3.3,0,5.8-0.8,7.7-2.3s2.7-3.7,2.7-6.5c0-2.7-0.9-4.9-2.8-6.6c-1.9-1.7-4.4-2.5-7.6-2.5h-10.9v28.4h4.9
	v-10.5H180z M174.2,386.2h6.1c1.6,0,2.9,0.5,3.9,1.4c0.9,0.9,1.4,2.1,1.4,3.7c0,1.6-0.5,2.8-1.4,3.6c-0.9,0.8-2.3,1.2-4,1.2h-5.9
	V386.2z M209.5,410.7h5.1l-10.7-28.4h-4.4l-10.7,28.4h5.1l2.3-6.6h11L209.5,410.7z M201.7,388.3l4.1,11.8h-8.2L201.7,388.3z
	 M234,410.7h5.3v-0.3l-6.4-11.8c1.6-0.7,2.9-1.7,3.8-3c0.9-1.3,1.4-2.9,1.4-4.8c0-2.8-0.9-4.9-2.7-6.4s-4.3-2.2-7.6-2.2h-10v28.4
	h4.9v-10.9h5.5L234,410.7z M222.8,386.2h5.2c1.7,0,3,0.5,3.9,1.3c0.9,0.8,1.3,2,1.3,3.5c0,1.5-0.5,2.6-1.4,3.4s-2.2,1.3-3.9,1.3
	h-5.1V386.2z M262.3,382.3h-22.5v4h8.8v24.4h4.9v-24.4h8.9V382.3z M266,382.3v28.4h4.9v-9.4l-0.5-12.5l8.4,21.9h3.5l8.4-21.9
	l-0.5,12.5v9.4h4.9v-28.4h-6.4l-8.2,21.8l-8.2-21.8H266z M317.6,394.1h-11.7v-7.8h13.5v-4H301v28.4h18.6v-3.9h-13.6V398h11.7V394.1z
	 M346.1,382.3h-4.9v20.2l-12.7-20.2h-4.9v28.4h4.9v-20.1l12.7,20.1h4.9V382.3z M371.9,382.3h-22.5v4h8.8v24.4h4.9v-24.4h8.9V382.3z
	 M317.4,347.5h53.9l-92.1-246.1h-47l-91.6,246.1h53.9l16.9-50.7h88.9L317.4,347.5z M255.7,163.6l30.9,92.1h-61.5L255.7,163.6z"/>
</svg>
